<?xml version="1.0" encoding="UTF-8"?>
<svg xmlns="http://www.w3.org/2000/svg" version="1.1" width="200" height="200" viewBox="0 0 200 200"><rect x="0" y="0" width="200" height="200" fill="#ffffff"/><g transform="scale(6.897)"><g transform="translate(0,0)"><path fill-rule="evenodd" d="M8 0L8 1L9 1L9 2L10 2L10 3L11 3L11 1L13 1L13 2L12 2L12 4L11 4L11 5L10 5L10 4L9 4L9 5L10 5L10 8L9 8L9 6L8 6L8 8L9 8L9 10L8 10L8 11L7 11L7 10L6 10L6 11L7 11L7 12L6 12L6 13L7 13L7 12L8 12L8 14L6 14L6 15L9 15L9 16L6 16L6 17L5 17L5 15L4 15L4 14L5 14L5 11L3 11L3 10L5 10L5 8L3 8L3 9L2 9L2 8L0 8L0 9L2 9L2 11L3 11L3 12L4 12L4 13L3 13L3 14L2 14L2 12L1 12L1 10L0 10L0 14L1 14L1 15L4 15L4 17L5 17L5 18L6 18L6 19L8 19L8 18L9 18L9 20L10 20L10 21L8 21L8 22L10 22L10 23L9 23L9 24L8 24L8 26L10 26L10 27L11 27L11 26L12 26L12 28L9 28L9 27L8 27L8 29L12 29L12 28L13 28L13 29L16 29L16 28L17 28L17 29L18 29L18 28L17 28L17 27L18 27L18 26L19 26L19 25L21 25L21 26L20 26L20 27L22 27L22 28L19 28L19 29L25 29L25 28L27 28L27 27L28 27L28 28L29 28L29 25L28 25L28 26L26 26L26 23L27 23L27 22L28 22L28 21L29 21L29 18L28 18L28 19L26 19L26 17L24 17L24 15L23 15L23 14L26 14L26 11L27 11L27 10L28 10L28 9L29 9L29 8L28 8L28 9L23 9L23 8L22 8L22 9L23 9L23 10L20 10L20 9L18 9L18 8L21 8L21 5L20 5L20 4L21 4L21 0L20 0L20 1L19 1L19 0L18 0L18 1L16 1L16 0L14 0L14 1L13 1L13 0L11 0L11 1L9 1L9 0ZM15 1L15 2L16 2L16 3L18 3L18 5L17 5L17 4L15 4L15 3L13 3L13 4L12 4L12 5L11 5L11 7L12 7L12 9L10 9L10 10L9 10L9 11L8 11L8 12L9 12L9 11L10 11L10 10L12 10L12 11L13 11L13 13L11 13L11 12L10 12L10 13L9 13L9 15L10 15L10 16L9 16L9 17L10 17L10 19L11 19L11 21L16 21L16 19L17 19L17 20L18 20L18 21L17 21L17 22L16 22L16 23L19 23L19 22L20 22L20 20L21 20L21 19L20 19L20 20L19 20L19 19L17 19L17 18L18 18L18 17L20 17L20 15L19 15L19 16L18 16L18 15L17 15L17 16L15 16L15 18L14 18L14 17L13 17L13 18L14 18L14 19L15 19L15 20L13 20L13 19L11 19L11 17L12 17L12 16L14 16L14 15L15 15L15 14L16 14L16 13L14 13L14 11L15 11L15 10L16 10L16 12L17 12L17 14L20 14L20 12L19 12L19 11L20 11L20 10L18 10L18 9L17 9L17 8L18 8L18 6L19 6L19 7L20 7L20 5L19 5L19 4L20 4L20 3L19 3L19 1L18 1L18 2L16 2L16 1ZM12 5L12 7L13 7L13 8L15 8L15 5ZM16 5L16 7L17 7L17 5ZM13 6L13 7L14 7L14 6ZM6 8L6 9L7 9L7 8ZM12 9L12 10L15 10L15 9ZM17 10L17 12L18 12L18 10ZM24 10L24 11L26 11L26 10ZM21 12L21 13L22 13L22 12ZM24 12L24 13L25 13L25 12ZM27 12L27 14L28 14L28 15L25 15L25 16L29 16L29 12ZM13 13L13 14L10 14L10 15L11 15L11 16L10 16L10 17L11 17L11 16L12 16L12 15L13 15L13 14L14 14L14 13ZM22 15L22 16L21 16L21 18L23 18L23 15ZM0 16L0 21L2 21L2 20L4 20L4 21L5 21L5 20L4 20L4 18L3 18L3 16L2 16L2 18L1 18L1 16ZM6 17L6 18L7 18L7 17ZM2 18L2 19L3 19L3 18ZM15 18L15 19L16 19L16 18ZM22 19L22 20L23 20L23 19ZM25 19L25 20L26 20L26 19ZM6 20L6 21L7 21L7 20ZM18 21L18 22L19 22L19 21ZM21 21L21 24L24 24L24 21ZM25 21L25 22L27 22L27 21ZM12 22L12 23L10 23L10 24L9 24L9 25L10 25L10 26L11 26L11 25L10 25L10 24L12 24L12 25L14 25L14 27L13 27L13 28L15 28L15 26L16 26L16 25L14 25L14 23L15 23L15 22ZM22 22L22 23L23 23L23 22ZM12 23L12 24L13 24L13 23ZM17 24L17 25L18 25L18 24ZM22 25L22 27L23 27L23 25ZM24 25L24 26L25 26L25 27L26 27L26 26L25 26L25 25ZM0 0L0 7L7 7L7 0ZM1 1L1 6L6 6L6 1ZM2 2L2 5L5 5L5 2ZM22 0L22 7L29 7L29 0ZM23 1L23 6L28 6L28 1ZM24 2L24 5L27 5L27 2ZM0 22L0 29L7 29L7 22ZM1 23L1 28L6 28L6 23ZM2 24L2 27L5 27L5 24Z" fill="#000000"/></g></g></svg>
