<?xml version="1.0" encoding="UTF-8"?>
<svg xmlns="http://www.w3.org/2000/svg" version="1.1" width="200" height="200" viewBox="0 0 200 200"><rect x="0" y="0" width="200" height="200" fill="#ffffff"/><g transform="scale(6.897)"><g transform="translate(0,0)"><path fill-rule="evenodd" d="M8 0L8 2L10 2L10 4L8 4L8 9L9 9L9 10L11 10L11 11L12 11L12 10L11 10L11 8L13 8L13 6L14 6L14 7L15 7L15 5L14 5L14 4L16 4L16 5L17 5L17 6L16 6L16 7L17 7L17 6L18 6L18 7L19 7L19 5L18 5L18 4L19 4L19 3L20 3L20 2L19 2L19 0L18 0L18 1L16 1L16 0L14 0L14 1L16 1L16 2L15 2L15 3L14 3L14 2L13 2L13 0L11 0L11 1L9 1L9 0ZM20 0L20 1L21 1L21 0ZM11 1L11 2L12 2L12 1ZM16 2L16 4L17 4L17 2ZM18 2L18 3L19 3L19 2ZM11 3L11 4L12 4L12 6L11 6L11 5L9 5L9 8L10 8L10 6L11 6L11 7L12 7L12 6L13 6L13 4L14 4L14 3ZM20 5L20 7L21 7L21 5ZM0 8L0 11L1 11L1 10L2 10L2 9L3 9L3 10L4 10L4 11L2 11L2 12L1 12L1 13L0 13L0 17L1 17L1 16L2 16L2 15L1 15L1 14L2 14L2 13L4 13L4 14L3 14L3 16L4 16L4 18L0 18L0 19L2 19L2 20L0 20L0 21L3 21L3 19L4 19L4 20L5 20L5 19L7 19L7 20L6 20L6 21L8 21L8 22L9 22L9 21L10 21L10 23L8 23L8 24L9 24L9 26L8 26L8 29L12 29L12 28L13 28L13 26L12 26L12 21L10 21L10 20L11 20L11 19L14 19L14 18L15 18L15 19L16 19L16 21L15 21L15 20L14 20L14 21L13 21L13 23L14 23L14 26L15 26L15 28L14 28L14 29L18 29L18 28L19 28L19 27L18 27L18 28L16 28L16 27L17 27L17 26L18 26L18 25L19 25L19 26L21 26L21 27L20 27L20 29L22 29L22 28L21 28L21 27L22 27L22 25L23 25L23 26L24 26L24 27L23 27L23 29L26 29L26 27L25 27L25 25L26 25L26 26L27 26L27 27L29 27L29 25L28 25L28 26L27 26L27 25L26 25L26 23L27 23L27 22L28 22L28 24L29 24L29 16L28 16L28 15L29 15L29 8L27 8L27 10L26 10L26 9L25 9L25 8L20 8L20 9L19 9L19 11L18 11L18 10L17 10L17 9L16 9L16 10L15 10L15 11L14 11L14 9L15 9L15 8L14 8L14 9L13 9L13 11L14 11L14 15L15 15L15 16L14 16L14 18L11 18L11 16L12 16L12 17L13 17L13 12L11 12L11 13L12 13L12 15L11 15L11 14L10 14L10 11L8 11L8 10L6 10L6 9L7 9L7 8L5 8L5 10L4 10L4 9L3 9L3 8ZM21 9L21 10L22 10L22 12L21 12L21 13L20 13L20 12L18 12L18 11L17 11L17 15L16 15L16 16L15 16L15 18L16 18L16 19L17 19L17 21L16 21L16 22L17 22L17 23L16 23L16 24L17 24L17 25L18 25L18 24L19 24L19 23L20 23L20 19L19 19L19 20L18 20L18 19L17 19L17 18L16 18L16 16L17 16L17 17L18 17L18 18L19 18L19 16L21 16L21 18L22 18L22 16L21 16L21 13L22 13L22 12L24 12L24 15L26 15L26 21L25 21L25 23L26 23L26 21L27 21L27 19L28 19L28 16L27 16L27 15L28 15L28 14L27 14L27 15L26 15L26 13L27 13L27 12L28 12L28 10L27 10L27 11L26 11L26 13L25 13L25 9L24 9L24 11L23 11L23 10L22 10L22 9ZM4 11L4 12L5 12L5 13L6 13L6 14L4 14L4 16L5 16L5 15L6 15L6 16L7 16L7 17L5 17L5 18L4 18L4 19L5 19L5 18L7 18L7 19L8 19L8 21L9 21L9 20L10 20L10 18L9 18L9 17L8 17L8 16L9 16L9 12L8 12L8 14L7 14L7 13L6 13L6 12L7 12L7 11ZM15 13L15 14L16 14L16 13ZM18 13L18 15L20 15L20 13ZM6 14L6 15L7 15L7 14ZM24 16L24 17L23 17L23 18L25 18L25 16ZM7 17L7 18L8 18L8 19L9 19L9 18L8 18L8 17ZM22 19L22 20L23 20L23 19ZM24 19L24 20L25 20L25 19ZM14 21L14 23L15 23L15 21ZM21 21L21 24L24 24L24 21ZM22 22L22 23L23 23L23 22ZM10 23L10 26L9 26L9 28L11 28L11 23ZM15 25L15 26L16 26L16 25ZM24 27L24 28L25 28L25 27ZM28 28L28 29L29 29L29 28ZM0 0L0 7L7 7L7 0ZM1 1L1 6L6 6L6 1ZM2 2L2 5L5 5L5 2ZM22 0L22 7L29 7L29 0ZM23 1L23 6L28 6L28 1ZM24 2L24 5L27 5L27 2ZM0 22L0 29L7 29L7 22ZM1 23L1 28L6 28L6 23ZM2 24L2 27L5 27L5 24Z" fill="#000000"/></g></g></svg>
