<?xml version="1.0" encoding="UTF-8"?>
<svg xmlns="http://www.w3.org/2000/svg" version="1.1" width="200" height="200" viewBox="0 0 200 200"><rect x="0" y="0" width="200" height="200" fill="#ffffff"/><g transform="scale(6.897)"><g transform="translate(0,0)"><path fill-rule="evenodd" d="M8 0L8 4L10 4L10 3L11 3L11 4L12 4L12 2L11 2L11 0ZM12 0L12 1L13 1L13 2L14 2L14 4L13 4L13 5L11 5L11 6L10 6L10 7L9 7L9 5L8 5L8 7L9 7L9 8L10 8L10 7L11 7L11 6L12 6L12 8L11 8L11 9L8 9L8 10L11 10L11 11L10 11L10 13L11 13L11 12L12 12L12 13L13 13L13 15L12 15L12 16L11 16L11 15L10 15L10 14L9 14L9 13L7 13L7 12L6 12L6 13L5 13L5 14L3 14L3 15L2 15L2 11L3 11L3 12L4 12L4 11L7 11L7 10L4 10L4 11L3 11L3 9L2 9L2 8L0 8L0 9L1 9L1 10L0 10L0 11L1 11L1 12L0 12L0 16L1 16L1 17L0 17L0 18L2 18L2 19L3 19L3 20L0 20L0 21L4 21L4 20L6 20L6 21L7 21L7 20L9 20L9 21L8 21L8 22L10 22L10 24L9 24L9 23L8 23L8 25L10 25L10 26L9 26L9 27L8 27L8 29L9 29L9 28L10 28L10 26L11 26L11 29L12 29L12 26L13 26L13 27L16 27L16 28L19 28L19 27L20 27L20 29L21 29L21 28L22 28L22 29L23 29L23 27L22 27L22 25L23 25L23 26L24 26L24 25L25 25L25 28L24 28L24 29L26 29L26 27L27 27L27 29L28 29L28 28L29 28L29 24L28 24L28 23L29 23L29 21L27 21L27 22L28 22L28 23L27 23L27 25L28 25L28 26L26 26L26 19L27 19L27 17L28 17L28 19L29 19L29 17L28 17L28 16L29 16L29 13L27 13L27 14L28 14L28 16L27 16L27 17L26 17L26 11L25 11L25 9L26 9L26 10L28 10L28 11L27 11L27 12L28 12L28 11L29 11L29 8L25 8L25 9L24 9L24 8L23 8L23 9L22 9L22 10L21 10L21 11L19 11L19 9L18 9L18 7L19 7L19 6L20 6L20 7L21 7L21 6L20 6L20 5L19 5L19 6L18 6L18 5L17 5L17 6L16 6L16 7L15 7L15 6L14 6L14 7L15 7L15 8L14 8L14 13L13 13L13 12L12 12L12 11L13 11L13 9L12 9L12 8L13 8L13 5L14 5L14 4L15 4L15 5L16 5L16 4L17 4L17 3L18 3L18 4L19 4L19 2L20 2L20 3L21 3L21 0L20 0L20 1L19 1L19 0L16 0L16 2L15 2L15 0L14 0L14 1L13 1L13 0ZM18 1L18 2L19 2L19 1ZM9 2L9 3L10 3L10 2ZM16 2L16 3L15 3L15 4L16 4L16 3L17 3L17 2ZM17 6L17 7L18 7L18 6ZM4 8L4 9L7 9L7 8ZM20 8L20 9L21 9L21 8ZM11 9L11 10L12 10L12 9ZM15 9L15 10L16 10L16 9ZM17 9L17 10L18 10L18 9ZM22 10L22 11L21 11L21 12L22 12L22 13L25 13L25 11L24 11L24 12L22 12L22 11L23 11L23 10ZM8 11L8 12L9 12L9 11ZM15 11L15 13L14 13L14 15L13 15L13 17L14 17L14 18L12 18L12 17L10 17L10 15L6 15L6 14L7 14L7 13L6 13L6 14L5 14L5 15L3 15L3 16L2 16L2 15L1 15L1 16L2 16L2 18L3 18L3 16L5 16L5 15L6 15L6 16L7 16L7 17L6 17L6 18L7 18L7 19L6 19L6 20L7 20L7 19L9 19L9 17L10 17L10 18L12 18L12 21L13 21L13 22L12 22L12 24L10 24L10 25L14 25L14 26L16 26L16 25L17 25L17 24L16 24L16 23L15 23L15 25L14 25L14 20L15 20L15 19L14 19L14 18L16 18L16 22L17 22L17 23L18 23L18 24L19 24L19 23L18 23L18 21L20 21L20 19L21 19L21 20L22 20L22 19L21 19L21 18L22 18L22 17L23 17L23 18L24 18L24 19L23 19L23 20L25 20L25 19L26 19L26 17L25 17L25 16L24 16L24 15L20 15L20 12L18 12L18 13L17 13L17 11ZM16 13L16 14L15 14L15 15L16 15L16 16L14 16L14 17L16 17L16 18L17 18L17 21L18 21L18 20L19 20L19 19L18 19L18 18L19 18L19 17L22 17L22 16L19 16L19 17L18 17L18 15L17 15L17 13ZM8 16L8 17L9 17L9 16ZM16 16L16 17L17 17L17 16ZM4 17L4 18L5 18L5 17ZM24 17L24 18L25 18L25 17ZM10 19L10 21L11 21L11 19ZM21 21L21 24L24 24L24 21ZM22 22L22 23L23 23L23 22ZM19 25L19 26L21 26L21 25ZM17 26L17 27L18 27L18 26ZM14 28L14 29L15 29L15 28ZM0 0L0 7L7 7L7 0ZM1 1L1 6L6 6L6 1ZM2 2L2 5L5 5L5 2ZM22 0L22 7L29 7L29 0ZM23 1L23 6L28 6L28 1ZM24 2L24 5L27 5L27 2ZM0 22L0 29L7 29L7 22ZM1 23L1 28L6 28L6 23ZM2 24L2 27L5 27L5 24Z" fill="#000000"/></g></g></svg>
