<?xml version="1.0" encoding="UTF-8"?>
<svg xmlns="http://www.w3.org/2000/svg" version="1.1" width="200" height="200" viewBox="0 0 200 200"><rect x="0" y="0" width="200" height="200" fill="#ffffff"/><g transform="scale(6.897)"><g transform="translate(0,0)"><path fill-rule="evenodd" d="M8 0L8 1L9 1L9 2L8 2L8 5L9 5L9 4L11 4L11 5L10 5L10 10L9 10L9 11L7 11L7 10L8 10L8 9L9 9L9 8L8 8L8 9L7 9L7 8L6 8L6 9L7 9L7 10L4 10L4 8L0 8L0 10L1 10L1 12L0 12L0 13L2 13L2 14L3 14L3 15L5 15L5 16L2 16L2 15L1 15L1 18L0 18L0 19L1 19L1 18L2 18L2 20L1 20L1 21L3 21L3 19L4 19L4 20L5 20L5 19L4 19L4 18L6 18L6 19L10 19L10 20L12 20L12 21L11 21L11 22L10 22L10 23L9 23L9 24L11 24L11 23L12 23L12 22L14 22L14 21L13 21L13 20L12 20L12 19L13 19L13 18L14 18L14 20L15 20L15 21L18 21L18 23L20 23L20 25L19 25L19 24L17 24L17 23L13 23L13 27L11 27L11 29L15 29L15 27L14 27L14 24L15 24L15 25L16 25L16 27L19 27L19 26L20 26L20 28L17 28L17 29L21 29L21 28L22 28L22 29L24 29L24 28L26 28L26 27L27 27L27 29L28 29L28 27L29 27L29 24L28 24L28 27L27 27L27 26L26 26L26 27L24 27L24 26L25 26L25 23L28 23L28 22L29 22L29 19L27 19L27 18L26 18L26 19L25 19L25 18L24 18L24 19L25 19L25 20L22 20L22 18L21 18L21 17L22 17L22 16L23 16L23 17L25 17L25 16L26 16L26 15L25 15L25 14L24 14L24 15L23 15L23 13L20 13L20 12L23 12L23 11L25 11L25 10L26 10L26 11L28 11L28 10L29 10L29 8L28 8L28 10L26 10L26 9L27 9L27 8L24 8L24 9L22 9L22 8L21 8L21 5L20 5L20 4L18 4L18 3L21 3L21 1L20 1L20 0L15 0L15 1L14 1L14 0L12 0L12 1L11 1L11 0L10 0L10 1L9 1L9 0ZM13 1L13 2L11 2L11 4L12 4L12 3L13 3L13 5L12 5L12 6L11 6L11 8L12 8L12 6L13 6L13 9L14 9L14 10L13 10L13 11L11 11L11 13L6 13L6 14L5 14L5 13L3 13L3 14L5 14L5 15L6 15L6 16L5 16L5 17L6 17L6 18L9 18L9 17L11 17L11 18L10 18L10 19L12 19L12 18L13 18L13 16L16 16L16 17L15 17L15 18L17 18L17 19L18 19L18 18L19 18L19 22L20 22L20 20L21 20L21 18L20 18L20 16L22 16L22 14L21 14L21 15L19 15L19 14L18 14L18 15L16 15L16 13L17 13L17 12L18 12L18 13L19 13L19 12L20 12L20 10L19 10L19 12L18 12L18 11L17 11L17 10L18 10L18 9L17 9L17 7L18 7L18 8L19 8L19 9L21 9L21 8L20 8L20 6L19 6L19 7L18 7L18 6L17 6L17 7L16 7L16 5L17 5L17 3L18 3L18 1L17 1L17 2L16 2L16 1L15 1L15 4L14 4L14 3L13 3L13 2L14 2L14 1ZM19 1L19 2L20 2L20 1ZM15 4L15 5L14 5L14 8L15 8L15 10L17 10L17 9L16 9L16 8L15 8L15 5L16 5L16 4ZM8 6L8 7L9 7L9 6ZM1 9L1 10L2 10L2 11L3 11L3 12L5 12L5 11L3 11L3 10L2 10L2 9ZM11 9L11 10L12 10L12 9ZM21 10L21 11L22 11L22 10ZM6 11L6 12L7 12L7 11ZM13 11L13 12L12 12L12 13L11 13L11 14L8 14L8 15L7 15L7 14L6 14L6 15L7 15L7 16L6 16L6 17L7 17L7 16L8 16L8 17L9 17L9 16L8 16L8 15L10 15L10 16L12 16L12 14L13 14L13 13L14 13L14 12L15 12L15 13L16 13L16 11ZM26 12L26 13L27 13L27 15L29 15L29 13L28 13L28 12ZM18 15L18 17L17 17L17 18L18 18L18 17L19 17L19 15ZM24 15L24 16L25 16L25 15ZM27 16L27 17L28 17L28 16ZM2 17L2 18L4 18L4 17ZM15 19L15 20L16 20L16 19ZM6 20L6 21L7 21L7 20ZM8 20L8 22L9 22L9 20ZM27 20L27 22L28 22L28 20ZM21 21L21 24L24 24L24 21ZM25 21L25 22L26 22L26 21ZM22 22L22 23L23 23L23 22ZM16 24L16 25L17 25L17 26L19 26L19 25L17 25L17 24ZM26 24L26 25L27 25L27 24ZM8 25L8 29L10 29L10 28L9 28L9 27L10 27L10 25ZM20 25L20 26L21 26L21 27L22 27L22 28L23 28L23 26L24 26L24 25L22 25L22 26L21 26L21 25ZM13 27L13 28L14 28L14 27ZM0 0L0 7L7 7L7 0ZM1 1L1 6L6 6L6 1ZM2 2L2 5L5 5L5 2ZM22 0L22 7L29 7L29 0ZM23 1L23 6L28 6L28 1ZM24 2L24 5L27 5L27 2ZM0 22L0 29L7 29L7 22ZM1 23L1 28L6 28L6 23ZM2 24L2 27L5 27L5 24Z" fill="#000000"/></g></g></svg>
