<?xml version="1.0" encoding="UTF-8"?>
<svg xmlns="http://www.w3.org/2000/svg" version="1.1" width="200" height="200" viewBox="0 0 200 200"><rect x="0" y="0" width="200" height="200" fill="#ffffff"/><g transform="scale(6.897)"><g transform="translate(0,0)"><path fill-rule="evenodd" d="M9 0L9 1L8 1L8 3L9 3L9 4L8 4L8 8L6 8L6 9L4 9L4 8L3 8L3 9L4 9L4 10L6 10L6 11L11 11L11 10L12 10L12 9L11 9L11 8L10 8L10 7L11 7L11 6L12 6L12 8L13 8L13 9L14 9L14 8L13 8L13 6L12 6L12 5L11 5L11 6L10 6L10 5L9 5L9 4L12 4L12 3L13 3L13 5L14 5L14 4L15 4L15 6L14 6L14 7L15 7L15 10L18 10L18 9L16 9L16 8L18 8L18 7L19 7L19 6L20 6L20 7L21 7L21 6L20 6L20 5L17 5L17 6L16 6L16 4L15 4L15 2L16 2L16 1L15 1L15 0L12 0L12 1L11 1L11 2L9 2L9 1L10 1L10 0ZM17 0L17 1L18 1L18 2L17 2L17 3L18 3L18 4L20 4L20 3L21 3L21 2L20 2L20 3L18 3L18 2L19 2L19 1L21 1L21 0ZM13 1L13 3L14 3L14 2L15 2L15 1ZM9 6L9 7L10 7L10 6ZM15 6L15 7L16 7L16 6ZM17 6L17 7L18 7L18 6ZM0 8L0 9L1 9L1 10L0 10L0 12L1 12L1 11L3 11L3 10L2 10L2 8ZM8 8L8 10L10 10L10 8ZM19 8L19 9L20 9L20 10L19 10L19 11L18 11L18 12L17 12L17 11L16 11L16 13L15 13L15 12L14 12L14 10L13 10L13 12L12 12L12 13L9 13L9 15L10 15L10 19L9 19L9 20L8 20L8 19L7 19L7 18L5 18L5 17L4 17L4 16L5 16L5 15L7 15L7 14L6 14L6 13L8 13L8 12L6 12L6 13L5 13L5 14L4 14L4 12L5 12L5 11L4 11L4 12L2 12L2 13L3 13L3 14L4 14L4 16L3 16L3 17L4 17L4 19L2 19L2 20L3 20L3 21L5 21L5 19L7 19L7 20L6 20L6 21L8 21L8 23L10 23L10 24L9 24L9 25L8 25L8 26L9 26L9 27L8 27L8 29L9 29L9 27L10 27L10 29L11 29L11 28L14 28L14 29L15 29L15 28L14 28L14 26L16 26L16 27L17 27L17 28L20 28L20 29L21 29L21 28L22 28L22 29L23 29L23 28L22 28L22 27L21 27L21 25L22 25L22 26L23 26L23 25L24 25L24 27L27 27L27 29L28 29L28 27L29 27L29 26L28 26L28 24L29 24L29 23L28 23L28 22L29 22L29 20L28 20L28 22L27 22L27 20L26 20L26 19L25 19L25 18L24 18L24 19L25 19L25 20L23 20L23 17L22 17L22 16L23 16L23 15L24 15L24 16L25 16L25 17L26 17L26 18L27 18L27 19L29 19L29 17L28 17L28 16L27 16L27 17L26 17L26 16L25 16L25 15L26 15L26 14L27 14L27 15L29 15L29 14L27 14L27 13L26 13L26 14L25 14L25 15L24 15L24 14L22 14L22 16L20 16L20 15L21 15L21 14L20 14L20 13L23 13L23 12L19 12L19 11L21 11L21 10L22 10L22 11L23 11L23 9L25 9L25 8L22 8L22 9L20 9L20 8ZM26 8L26 9L28 9L28 10L25 10L25 11L26 11L26 12L28 12L28 13L29 13L29 11L28 11L28 10L29 10L29 9L28 9L28 8ZM6 9L6 10L7 10L7 9ZM18 12L18 13L19 13L19 12ZM0 13L0 14L1 14L1 15L0 15L0 17L1 17L1 16L2 16L2 14L1 14L1 13ZM13 13L13 14L14 14L14 16L13 16L13 17L11 17L11 19L10 19L10 22L11 22L11 24L10 24L10 25L11 25L11 26L14 26L14 25L13 25L13 22L14 22L14 24L15 24L15 25L16 25L16 26L17 26L17 27L19 27L19 25L20 25L20 22L19 22L19 20L20 20L20 18L21 18L21 20L22 20L22 18L21 18L21 17L19 17L19 15L20 15L20 14L19 14L19 15L18 15L18 14L17 14L17 13L16 13L16 14L14 14L14 13ZM11 14L11 16L12 16L12 14ZM16 14L16 15L17 15L17 17L16 17L16 16L14 16L14 17L13 17L13 18L14 18L14 17L15 17L15 18L18 18L18 19L17 19L17 20L16 20L16 19L15 19L15 21L17 21L17 23L18 23L18 21L17 21L17 20L19 20L19 18L18 18L18 15L17 15L17 14ZM6 16L6 17L7 17L7 16ZM8 17L8 18L9 18L9 17ZM0 18L0 19L1 19L1 18ZM11 19L11 20L12 20L12 19ZM0 20L0 21L1 21L1 20ZM13 20L13 21L14 21L14 20ZM25 20L25 21L26 21L26 20ZM21 21L21 24L24 24L24 21ZM22 22L22 23L23 23L23 22ZM25 22L25 26L26 26L26 25L27 25L27 24L26 24L26 22ZM16 24L16 25L19 25L19 24ZM27 26L27 27L28 27L28 26ZM24 28L24 29L26 29L26 28ZM0 0L0 7L7 7L7 0ZM1 1L1 6L6 6L6 1ZM2 2L2 5L5 5L5 2ZM22 0L22 7L29 7L29 0ZM23 1L23 6L28 6L28 1ZM24 2L24 5L27 5L27 2ZM0 22L0 29L7 29L7 22ZM1 23L1 28L6 28L6 23ZM2 24L2 27L5 27L5 24Z" fill="#000000"/></g></g></svg>
