<?xml version="1.0" encoding="UTF-8"?>
<svg xmlns="http://www.w3.org/2000/svg" version="1.1" width="200" height="200" viewBox="0 0 200 200"><rect x="0" y="0" width="200" height="200" fill="#ffffff"/><g transform="scale(6.897)"><g transform="translate(0,0)"><path fill-rule="evenodd" d="M10 0L10 1L8 1L8 3L9 3L9 4L8 4L8 8L6 8L6 9L4 9L4 8L3 8L3 9L4 9L4 12L5 12L5 13L7 13L7 14L5 14L5 15L4 15L4 16L3 16L3 15L2 15L2 16L3 16L3 17L2 17L2 18L3 18L3 19L2 19L2 20L3 20L3 21L5 21L5 20L6 20L6 21L8 21L8 23L9 23L9 25L8 25L8 26L10 26L10 28L9 28L9 27L8 27L8 29L12 29L12 28L13 28L13 29L15 29L15 27L13 27L13 24L12 24L12 25L11 25L11 26L10 26L10 22L12 22L12 21L11 21L11 20L9 20L9 21L8 21L8 18L9 18L9 16L10 16L10 15L11 15L11 16L12 16L12 18L11 18L11 17L10 17L10 18L11 18L11 19L12 19L12 20L13 20L13 18L14 18L14 20L15 20L15 21L14 21L14 22L15 22L15 21L17 21L17 20L18 20L18 21L20 21L20 23L18 23L18 22L17 22L17 23L18 23L18 24L20 24L20 28L19 28L19 29L22 29L22 26L23 26L23 28L24 28L24 29L25 29L25 28L26 28L26 26L25 26L25 25L26 25L26 24L27 24L27 23L28 23L28 25L27 25L27 26L28 26L28 27L27 27L27 29L28 29L28 27L29 27L29 26L28 26L28 25L29 25L29 23L28 23L28 22L29 22L29 21L27 21L27 20L29 20L29 17L28 17L28 15L29 15L29 14L27 14L27 13L29 13L29 12L28 12L28 10L29 10L29 9L28 9L28 8L26 8L26 9L25 9L25 8L22 8L22 9L21 9L21 8L20 8L20 9L21 9L21 10L19 10L19 11L18 11L18 10L16 10L16 11L15 11L15 10L14 10L14 9L15 9L15 8L18 8L18 9L19 9L19 8L18 8L18 7L19 7L19 6L20 6L20 7L21 7L21 4L20 4L20 5L19 5L19 3L21 3L21 1L20 1L20 2L17 2L17 1L16 1L16 2L14 2L14 3L12 3L12 7L11 7L11 4L10 4L10 3L9 3L9 2L11 2L11 0ZM14 0L14 1L15 1L15 0ZM18 0L18 1L19 1L19 0ZM16 2L16 3L14 3L14 4L13 4L13 7L12 7L12 8L13 8L13 9L14 9L14 8L15 8L15 7L16 7L16 6L15 6L15 5L18 5L18 6L17 6L17 7L18 7L18 6L19 6L19 5L18 5L18 4L17 4L17 2ZM9 5L9 8L8 8L8 10L7 10L7 9L6 9L6 10L5 10L5 11L6 11L6 12L7 12L7 13L9 13L9 14L7 14L7 15L6 15L6 16L4 16L4 17L6 17L6 18L7 18L7 17L8 17L8 16L9 16L9 15L10 15L10 14L11 14L11 13L10 13L10 12L8 12L8 10L9 10L9 11L11 11L11 8L10 8L10 5ZM14 6L14 7L13 7L13 8L14 8L14 7L15 7L15 6ZM0 8L0 9L2 9L2 8ZM9 9L9 10L10 10L10 9ZM24 9L24 10L23 10L23 12L24 12L24 15L22 15L22 14L23 14L23 13L22 13L22 12L18 12L18 11L17 11L17 12L15 12L15 11L14 11L14 12L12 12L12 16L14 16L14 17L15 17L15 20L17 20L17 19L18 19L18 18L19 18L19 20L21 20L21 19L20 19L20 17L23 17L23 18L22 18L22 20L25 20L25 23L27 23L27 22L26 22L26 20L27 20L27 18L28 18L28 17L27 17L27 15L26 15L26 13L27 13L27 12L26 12L26 13L25 13L25 11L24 11L24 10L25 10L25 9ZM26 9L26 10L28 10L28 9ZM0 10L0 11L1 11L1 10ZM2 10L2 12L1 12L1 13L0 13L0 14L4 14L4 13L2 13L2 12L3 12L3 10ZM6 10L6 11L7 11L7 10ZM14 12L14 13L13 13L13 15L15 15L15 12ZM16 13L16 14L20 14L20 13ZM16 15L16 17L17 17L17 18L18 18L18 17L17 17L17 16L18 16L18 15ZM19 15L19 17L20 17L20 15ZM21 15L21 16L22 16L22 15ZM24 15L24 16L25 16L25 17L26 17L26 15ZM0 16L0 17L1 17L1 16ZM6 16L6 17L7 17L7 16ZM0 18L0 19L1 19L1 18ZM23 18L23 19L24 19L24 18ZM25 18L25 19L26 19L26 18ZM3 19L3 20L4 20L4 19ZM6 19L6 20L7 20L7 19ZM0 20L0 21L1 21L1 20ZM9 21L9 22L10 22L10 21ZM21 21L21 24L24 24L24 21ZM22 22L22 23L23 23L23 22ZM14 23L14 24L15 24L15 26L16 26L16 28L18 28L18 27L19 27L19 26L18 26L18 27L17 27L17 26L16 26L16 23ZM23 25L23 26L24 26L24 25ZM11 26L11 28L12 28L12 26ZM0 0L0 7L7 7L7 0ZM1 1L1 6L6 6L6 1ZM2 2L2 5L5 5L5 2ZM22 0L22 7L29 7L29 0ZM23 1L23 6L28 6L28 1ZM24 2L24 5L27 5L27 2ZM0 22L0 29L7 29L7 22ZM1 23L1 28L6 28L6 23ZM2 24L2 27L5 27L5 24Z" fill="#000000"/></g></g></svg>
