<?xml version="1.0" encoding="UTF-8"?>
<svg xmlns="http://www.w3.org/2000/svg" version="1.1" width="200" height="200" viewBox="0 0 200 200"><rect x="0" y="0" width="200" height="200" fill="#ffffff"/><g transform="scale(6.897)"><g transform="translate(0,0)"><path fill-rule="evenodd" d="M9 0L9 1L11 1L11 2L9 2L9 3L8 3L8 5L9 5L9 6L8 6L8 7L9 7L9 9L8 9L8 8L5 8L5 10L3 10L3 9L2 9L2 8L0 8L0 9L1 9L1 10L3 10L3 11L1 11L1 12L0 12L0 15L1 15L1 16L0 16L0 21L1 21L1 19L2 19L2 18L3 18L3 20L5 20L5 21L8 21L8 24L9 24L9 25L10 25L10 26L9 26L9 27L8 27L8 29L10 29L10 28L11 28L11 29L12 29L12 27L13 27L13 26L11 26L11 25L14 25L14 23L16 23L16 25L15 25L15 29L16 29L16 28L17 28L17 27L18 27L18 28L20 28L20 27L21 27L21 25L23 25L23 26L22 26L22 28L23 28L23 26L24 26L24 27L26 27L26 28L24 28L24 29L27 29L27 27L28 27L28 28L29 28L29 27L28 27L28 26L29 26L29 25L28 25L28 23L27 23L27 22L26 22L26 21L29 21L29 20L26 20L26 21L25 21L25 19L22 19L22 20L19 20L19 19L21 19L21 18L20 18L20 17L22 17L22 18L23 18L23 17L22 17L22 16L24 16L24 15L22 15L22 14L23 14L23 10L22 10L22 12L21 12L21 15L20 15L20 17L18 17L18 16L17 16L17 14L18 14L18 15L19 15L19 14L20 14L20 12L19 12L19 10L21 10L21 8L20 8L20 9L19 9L19 10L15 10L15 11L16 11L16 13L15 13L15 12L14 12L14 14L13 14L13 13L12 13L12 14L13 14L13 15L12 15L12 17L14 17L14 18L15 18L15 19L14 19L14 20L15 20L15 21L12 21L12 19L13 19L13 18L12 18L12 19L11 19L11 18L10 18L10 17L11 17L11 16L8 16L8 17L7 17L7 16L6 16L6 15L7 15L7 14L6 14L6 13L7 13L7 12L9 12L9 15L11 15L11 12L12 12L12 11L14 11L14 10L11 10L11 8L10 8L10 7L11 7L11 4L12 4L12 5L14 5L14 8L13 8L13 6L12 6L12 9L14 9L14 8L16 8L16 7L17 7L17 6L16 6L16 7L15 7L15 5L17 5L17 4L18 4L18 5L20 5L20 4L21 4L21 1L20 1L20 2L18 2L18 0L17 0L17 2L16 2L16 4L15 4L15 3L13 3L13 4L12 4L12 2L13 2L13 1L12 1L12 0ZM15 0L15 1L16 1L16 0ZM17 2L17 3L18 3L18 4L19 4L19 3L18 3L18 2ZM9 3L9 5L10 5L10 3ZM14 4L14 5L15 5L15 4ZM9 6L9 7L10 7L10 6ZM18 6L18 7L19 7L19 6ZM20 6L20 7L21 7L21 6ZM17 8L17 9L18 9L18 8ZM24 8L24 12L25 12L25 9L26 9L26 10L28 10L28 9L26 9L26 8ZM6 9L6 10L7 10L7 11L6 11L6 12L5 12L5 11L4 11L4 12L5 12L5 13L4 13L4 14L3 14L3 12L1 12L1 14L3 14L3 15L2 15L2 16L1 16L1 17L3 17L3 18L4 18L4 19L5 19L5 20L7 20L7 19L9 19L9 20L8 20L8 21L9 21L9 24L12 24L12 23L13 23L13 22L12 22L12 21L10 21L10 20L11 20L11 19L10 19L10 18L9 18L9 17L8 17L8 18L7 18L7 17L6 17L6 16L5 16L5 15L4 15L4 14L5 14L5 13L6 13L6 12L7 12L7 11L8 11L8 9ZM9 9L9 10L10 10L10 11L9 11L9 12L10 12L10 11L11 11L11 10L10 10L10 9ZM17 11L17 13L16 13L16 14L17 14L17 13L19 13L19 12L18 12L18 11ZM28 12L28 13L26 13L26 17L24 17L24 18L28 18L28 19L29 19L29 17L27 17L27 14L29 14L29 12ZM24 13L24 14L25 14L25 13ZM3 15L3 17L4 17L4 15ZM13 15L13 16L14 16L14 17L15 17L15 18L16 18L16 17L17 17L17 20L18 20L18 19L19 19L19 18L18 18L18 17L17 17L17 16L16 16L16 15ZM21 15L21 16L22 16L22 15ZM28 15L28 16L29 16L29 15ZM5 17L5 19L7 19L7 18L6 18L6 17ZM15 21L15 22L17 22L17 21ZM21 21L21 24L24 24L24 21ZM10 22L10 23L11 23L11 22ZM18 22L18 23L17 23L17 24L18 24L18 25L16 25L16 27L17 27L17 26L18 26L18 25L19 25L19 27L20 27L20 25L19 25L19 24L20 24L20 23L19 23L19 22ZM22 22L22 23L23 23L23 22ZM25 23L25 25L24 25L24 26L26 26L26 27L27 27L27 26L28 26L28 25L27 25L27 23ZM10 26L10 27L11 27L11 26ZM0 0L0 7L7 7L7 0ZM1 1L1 6L6 6L6 1ZM2 2L2 5L5 5L5 2ZM22 0L22 7L29 7L29 0ZM23 1L23 6L28 6L28 1ZM24 2L24 5L27 5L27 2ZM0 22L0 29L7 29L7 22ZM1 23L1 28L6 28L6 23ZM2 24L2 27L5 27L5 24Z" fill="#000000"/></g></g></svg>
