<?xml version="1.0" encoding="UTF-8"?>
<svg xmlns="http://www.w3.org/2000/svg" version="1.1" width="200" height="200" viewBox="0 0 200 200"><rect x="0" y="0" width="200" height="200" fill="#ffffff"/><g transform="scale(6.897)"><g transform="translate(0,0)"><path fill-rule="evenodd" d="M8 0L8 1L11 1L11 3L10 3L10 2L9 2L9 3L10 3L10 5L9 5L9 6L8 6L8 8L9 8L9 9L7 9L7 8L6 8L6 9L7 9L7 10L6 10L6 11L5 11L5 13L4 13L4 11L3 11L3 9L4 9L4 10L5 10L5 8L3 8L3 9L2 9L2 8L0 8L0 9L1 9L1 10L0 10L0 11L1 11L1 10L2 10L2 12L1 12L1 13L0 13L0 16L1 16L1 15L4 15L4 17L3 17L3 16L2 16L2 17L0 17L0 21L3 21L3 19L8 19L8 22L9 22L9 24L8 24L8 26L9 26L9 27L8 27L8 29L10 29L10 28L9 28L9 27L10 27L10 26L11 26L11 28L12 28L12 27L14 27L14 26L15 26L15 28L14 28L14 29L16 29L16 28L17 28L17 29L18 29L18 28L20 28L20 29L21 29L21 28L20 28L20 27L21 27L21 26L20 26L20 25L23 25L23 26L24 26L24 27L25 27L25 26L27 26L27 27L26 27L26 28L23 28L23 27L22 27L22 28L23 28L23 29L26 29L26 28L27 28L27 27L28 27L28 28L29 28L29 25L28 25L28 24L29 24L29 23L27 23L27 25L25 25L25 23L26 23L26 21L28 21L28 20L27 20L27 19L22 19L22 20L21 20L21 18L20 18L20 17L17 17L17 18L15 18L15 15L16 15L16 16L17 16L17 15L16 15L16 13L17 13L17 14L18 14L18 15L20 15L20 16L21 16L21 17L22 17L22 16L23 16L23 18L28 18L28 19L29 19L29 18L28 18L28 17L24 17L24 15L23 15L23 12L25 12L25 9L24 9L24 10L22 10L22 11L23 11L23 12L21 12L21 13L20 13L20 12L19 12L19 10L20 10L20 11L21 11L21 6L20 6L20 7L19 7L19 6L18 6L18 5L21 5L21 2L20 2L20 1L19 1L19 2L18 2L18 0L17 0L17 2L18 2L18 3L16 3L16 4L15 4L15 3L14 3L14 2L15 2L15 1L16 1L16 0L15 0L15 1L12 1L12 0ZM12 2L12 4L13 4L13 2ZM19 2L19 3L18 3L18 4L19 4L19 3L20 3L20 2ZM10 5L10 6L9 6L9 7L10 7L10 9L9 9L9 10L8 10L8 11L9 11L9 12L7 12L7 11L6 11L6 12L7 12L7 13L5 13L5 14L7 14L7 13L8 13L8 14L9 14L9 12L11 12L11 14L10 14L10 15L9 15L9 17L8 17L8 16L7 16L7 15L5 15L5 17L4 17L4 18L7 18L7 17L8 17L8 19L10 19L10 18L9 18L9 17L10 17L10 15L11 15L11 16L12 16L12 15L13 15L13 16L14 16L14 15L13 15L13 14L12 14L12 13L14 13L14 14L15 14L15 13L16 13L16 12L17 12L17 13L19 13L19 14L20 14L20 15L21 15L21 16L22 16L22 15L21 15L21 14L20 14L20 13L19 13L19 12L17 12L17 11L18 11L18 10L19 10L19 7L18 7L18 6L17 6L17 7L16 7L16 5L15 5L15 7L14 7L14 5L12 5L12 6L11 6L11 5ZM10 6L10 7L11 7L11 6ZM12 6L12 9L13 9L13 8L14 8L14 7L13 7L13 6ZM15 7L15 8L16 8L16 9L18 9L18 8L16 8L16 7ZM22 8L22 9L23 9L23 8ZM28 8L28 9L26 9L26 11L27 11L27 10L28 10L28 9L29 9L29 8ZM10 9L10 10L9 10L9 11L10 11L10 10L11 10L11 9ZM12 10L12 11L14 11L14 13L15 13L15 11L17 11L17 10L15 10L15 11L14 11L14 10ZM28 11L28 13L27 13L27 14L26 14L26 13L24 13L24 14L25 14L25 15L26 15L26 16L27 16L27 14L28 14L28 16L29 16L29 11ZM2 12L2 13L1 13L1 14L4 14L4 13L3 13L3 12ZM6 16L6 17L7 17L7 16ZM2 17L2 18L3 18L3 17ZM12 17L12 18L11 18L11 19L12 19L12 21L10 21L10 20L9 20L9 22L12 22L12 23L13 23L13 22L12 22L12 21L13 21L13 19L12 19L12 18L13 18L13 17ZM17 18L17 20L16 20L16 21L15 21L15 20L14 20L14 21L15 21L15 22L14 22L14 25L16 25L16 26L18 26L18 25L19 25L19 24L20 24L20 23L19 23L19 22L17 22L17 20L18 20L18 19L19 19L19 18ZM4 20L4 21L7 21L7 20ZM19 20L19 21L20 21L20 20ZM21 21L21 24L24 24L24 21ZM15 22L15 23L17 23L17 24L16 24L16 25L18 25L18 23L17 23L17 22ZM22 22L22 23L23 23L23 22ZM10 23L10 25L11 25L11 26L13 26L13 25L11 25L11 23ZM24 25L24 26L25 26L25 25ZM27 25L27 26L28 26L28 25ZM17 27L17 28L18 28L18 27ZM0 0L0 7L7 7L7 0ZM1 1L1 6L6 6L6 1ZM2 2L2 5L5 5L5 2ZM22 0L22 7L29 7L29 0ZM23 1L23 6L28 6L28 1ZM24 2L24 5L27 5L27 2ZM0 22L0 29L7 29L7 22ZM1 23L1 28L6 28L6 23ZM2 24L2 27L5 27L5 24Z" fill="#000000"/></g></g></svg>
